<svg width="28" height="28" viewBox="0 0 28 28" fill="none" xmlns="http://www.w3.org/2000/svg">
<path fill-rule="evenodd" clip-rule="evenodd" d="M11.7727 14.813L8.02543 13.564C5.67221 12.7796 4.49561 12.3874 4.49561 11.6666C4.49561 10.9458 5.67221 10.5536 8.02543 9.76923L19.5386 5.93151C21.1944 5.37958 22.0223 5.10362 22.4593 5.54063C22.8963 5.97765 22.6203 6.80554 22.0684 8.46133L18.2307 19.9745C17.4463 22.3277 17.0541 23.5043 16.3333 23.5043C15.6126 23.5043 15.2204 22.3277 14.436 19.9745L13.1869 16.2273L18.2071 11.207C18.5976 10.8165 18.5976 10.1834 18.2071 9.79283C17.8166 9.4023 17.1834 9.4023 16.7929 9.79283L11.7727 14.813Z" fill="white"/>
</svg>
