<svg width="222" height="149" viewBox="0 0 222 149" fill="none" xmlns="http://www.w3.org/2000/svg">
<ellipse cx="111" cy="71.5" rx="111" ry="71.5" fill="#111111"/>
<path d="M36.2555 86.3522C36.7343 85.7768 36.9168 85.1326 36.803 84.4197C36.6931 83.7108 36.3118 83.02 35.659 82.3471C35.2 81.8741 34.735 81.5376 34.2639 81.3376C33.7928 81.1376 33.3478 81.0666 32.9291 81.1246C32.5103 81.1825 32.142 81.3618 31.824 81.6624C31.563 81.9156 31.3941 82.1943 31.3171 82.4985C31.2442 82.8068 31.2413 83.1302 31.3085 83.4688C31.3798 83.8034 31.4932 84.1406 31.6488 84.4804C31.8044 84.8203 31.9763 85.1484 32.1644 85.4646L33.0102 86.9239C33.3591 87.5038 33.6514 88.1029 33.8872 88.7212C34.1269 89.3436 34.2722 89.9666 34.323 90.5902C34.3778 91.2179 34.3023 91.8295 34.0964 92.4251C33.8905 93.0206 33.5164 93.5816 32.974 94.1078C32.24 94.8199 31.4117 95.2595 30.489 95.4263C29.5704 95.5893 28.6099 95.4683 27.6075 95.0634C26.6131 94.6586 25.6292 93.9546 24.6559 92.9515C23.7103 91.9769 23.0402 90.9843 22.6457 89.9738C22.255 88.9674 22.1534 87.9814 22.3408 87.0159C22.5321 86.0545 23.0279 85.1538 23.8281 84.3141L25.9943 86.5467C25.5896 87.0027 25.3572 87.4894 25.2972 88.0068C25.2371 88.5243 25.3197 89.0418 25.545 89.5596C25.7741 90.0814 26.1182 90.5788 26.5772 91.0518C27.0559 91.5452 27.5487 91.9063 28.0555 92.1349C28.5704 92.3637 29.0633 92.4555 29.5341 92.4104C30.0089 92.3613 30.4278 92.1647 30.7906 91.8206C31.1129 91.5 31.289 91.1431 31.3191 90.7497C31.3532 90.3525 31.2774 89.9154 31.0918 89.4384C30.9141 88.9616 30.6648 88.4435 30.3438 87.8842L29.328 86.1029C28.592 84.814 28.2024 83.6087 28.1591 82.487C28.1238 81.3654 28.5547 80.3694 29.4518 79.499C30.1899 78.7828 31.0301 78.3555 31.9725 78.2171C32.9188 78.0827 33.8811 78.2138 34.8596 78.6103C35.8421 79.0028 36.7587 79.6375 37.6093 80.5142C38.4719 81.4032 39.0726 82.3324 39.4115 83.3019C39.7585 84.2715 39.8448 85.213 39.6702 86.1265C39.4998 87.036 39.0678 87.8391 38.3742 88.5359L36.2555 86.3522Z" fill="white"/>
<path d="M47.3958 102.653L43.2769 109.124L40.6742 107.467L50.047 92.7425L52.5921 94.3626L49.0545 99.9202L49.1839 100.003C49.8394 99.5443 50.5523 99.3077 51.3228 99.293C52.1011 99.2765 52.912 99.5368 53.7556 100.074C54.5225 100.562 55.0889 101.148 55.4549 101.832C55.8209 102.517 55.9628 103.267 55.8808 104.084C55.8036 104.903 55.4812 105.759 54.9137 106.65L50.4379 113.682L47.8352 112.025L52.0548 105.396C52.5277 104.653 52.7036 103.954 52.5825 103.298C52.4693 102.639 52.07 102.092 51.3846 101.656C50.9244 101.363 50.4481 101.201 49.9557 101.171C49.4711 101.139 49.0068 101.244 48.5627 101.486C48.1234 101.732 47.7345 102.121 47.3958 102.653Z" fill="white"/>
<path d="M68.8834 122.977C67.6777 122.552 66.7263 121.919 66.0291 121.077C65.3319 120.234 64.9076 119.25 64.7562 118.125C64.6102 117.001 64.762 115.801 65.2115 114.526C65.6611 113.251 66.2961 112.218 67.1165 111.429C67.9422 110.642 68.8907 110.139 69.9619 109.92C71.0331 109.701 72.1715 109.804 73.3772 110.229C74.5829 110.654 75.5343 111.288 76.2315 112.13C76.9287 112.972 77.3493 113.958 77.4935 115.087C77.643 116.218 77.493 117.421 77.0434 118.697C76.5938 119.972 75.9571 121.001 75.1332 121.783C74.3147 122.567 73.3699 123.068 72.2987 123.287C71.2275 123.506 70.0891 123.402 68.8834 122.977ZM69.7211 120.652C70.3749 120.883 70.9848 120.896 71.5507 120.692C72.1186 120.482 72.6174 120.11 73.047 119.574C73.4821 119.041 73.8318 118.399 74.0963 117.649C74.3626 116.893 74.4936 116.171 74.4893 115.483C74.4921 114.791 74.3381 114.186 74.0271 113.666C73.7162 113.147 73.2338 112.772 72.5801 112.542C71.9102 112.306 71.2887 112.291 70.7155 112.499C70.1477 112.709 69.6453 113.083 69.2083 113.621C68.7786 114.157 68.4306 114.802 68.1643 115.558C67.8998 116.308 67.7671 117.026 67.7661 117.713C67.7705 118.401 67.9281 119.005 68.2391 119.524C68.5573 120.04 69.0513 120.416 69.7211 120.652Z" fill="white"/>
<path d="M88.3796 133.565L90.3728 115.676L93.3882 116.012L93.1485 118.163L93.3264 118.183C93.5197 117.885 93.7802 117.574 94.1078 117.25C94.4361 116.921 94.86 116.656 95.3796 116.457C95.8998 116.252 96.5411 116.192 97.3034 116.277C98.3086 116.389 99.1863 116.747 99.9365 117.35C100.693 117.949 101.253 118.775 101.616 119.827C101.985 120.875 102.089 122.121 101.928 123.567C101.769 124.995 101.399 126.183 100.819 127.13C100.239 128.078 99.5162 128.769 98.6501 129.204C97.7841 129.639 96.8401 129.8 95.818 129.686C95.0726 129.603 94.4681 129.41 94.0045 129.107C93.5409 128.804 93.179 128.46 92.9187 128.077C92.6647 127.688 92.4734 127.327 92.3449 126.992L92.2179 126.978L91.4459 133.907L88.3796 133.565ZM92.655 122.516C92.5612 123.358 92.5977 124.108 92.7644 124.767C92.9368 125.426 93.229 125.959 93.6411 126.365C94.0595 126.766 94.5934 127.003 95.2428 127.075C95.9204 127.151 96.508 127.033 97.0057 126.723C97.504 126.407 97.9041 125.945 98.2061 125.339C98.5144 124.727 98.7138 124.015 98.8044 123.201C98.8944 122.394 98.8585 121.664 98.6968 121.011C98.5352 120.359 98.2454 119.829 97.8277 119.422C97.4099 119.016 96.8594 118.774 96.1761 118.698C95.5211 118.625 94.9457 118.735 94.4499 119.029C93.9541 119.322 93.553 119.766 93.2467 120.361C92.9459 120.956 92.7487 121.675 92.655 122.516Z" fill="white"/>
<path d="M140.332 108.366L145.098 125.157L142.393 125.925L131.234 116.733L131.095 116.773L134.341 128.21L131.299 129.074L126.534 112.282L129.256 111.51L140.408 120.712L140.556 120.67L137.307 109.225L140.332 108.366Z" fill="white"/>
<path d="M166.511 116.35C165.406 116.993 164.307 117.307 163.214 117.293C162.121 117.279 161.096 116.965 160.14 116.351C159.19 115.734 158.374 114.841 157.693 113.673C157.013 112.504 156.638 111.352 156.568 110.216C156.503 109.077 156.734 108.028 157.261 107.07C157.788 106.112 158.604 105.312 159.709 104.669C160.814 104.025 161.913 103.711 163.006 103.725C164.099 103.739 165.123 104.057 166.076 104.679C167.035 105.298 167.854 106.191 168.535 107.36C169.215 108.529 169.587 109.68 169.649 110.814C169.716 111.945 169.486 112.99 168.959 113.948C168.431 114.906 167.615 115.706 166.511 116.35ZM165.282 114.205C165.881 113.856 166.286 113.4 166.497 112.837C166.705 112.268 166.744 111.647 166.615 110.973C166.49 110.296 166.228 109.614 165.828 108.927C165.424 108.234 164.959 107.667 164.432 107.224C163.907 106.774 163.346 106.499 162.749 106.4C162.152 106.3 161.554 106.425 160.954 106.774C160.341 107.131 159.927 107.595 159.714 108.167C159.506 108.735 159.466 109.36 159.593 110.042C159.723 110.716 159.989 111.399 160.392 112.092C160.792 112.779 161.254 113.345 161.776 113.791C162.303 114.233 162.865 114.504 163.462 114.604C164.062 114.695 164.668 114.563 165.282 114.205Z" fill="white"/>
<path d="M185.863 103.19L174.002 96.5293L176.229 94.3092L184.357 99.2041L184.441 99.1199L179.609 90.94L181.813 88.7439L189.94 93.5665L190.031 93.4763L185.175 85.3928L187.408 83.1667L194.024 95.0558L191.748 97.324L183.765 92.7909L183.638 92.9173L188.144 100.916L185.863 103.19Z" fill="white"/>
<path d="M29.4608 66.7864L16.3101 55.3094L23.7746 46.7564L25.7716 48.4992L20.3862 54.67L23.9564 57.7858L28.9551 52.0581L30.9521 53.8009L25.9534 59.5287L29.5428 62.6613L34.9731 56.4391L36.9701 58.182L29.4608 66.7864Z" fill="white"/>
<path d="M36.4087 41.0625L41.4934 43.1787L40.5637 37.7294L43.1099 35.6869L44.1276 43.2617L51.3546 45.8556L48.8217 47.8874L43.7119 45.9443L44.5204 51.3379L41.9676 53.3857L40.9831 45.7842L33.8559 43.1104L36.4087 41.0625Z" fill="white"/>
<path d="M58.8703 46.7786L50.2581 30.9726L52.9223 29.5209L53.9581 31.4218L54.1153 31.3362C54.1027 30.9807 54.1381 30.5764 54.2212 30.1235C54.3017 29.6655 54.4978 29.206 54.8095 28.745C55.1186 28.279 55.6098 27.8625 56.2834 27.4955C57.1715 27.0116 58.0959 26.8023 59.0568 26.8675C60.0199 26.9251 60.9516 27.2813 61.8519 27.936C62.7544 28.5831 63.5537 29.5452 64.2496 30.8225C64.9374 32.0847 65.3148 33.2702 65.3819 34.379C65.449 35.4877 65.2522 36.4685 64.7915 37.3212C64.3309 38.174 63.649 38.8464 62.746 39.3384C62.0874 39.6973 61.4813 39.8852 60.9276 39.9021C60.3739 39.9191 59.8806 39.845 59.4476 39.6797C59.0169 39.5068 58.6531 39.32 58.3561 39.1195L58.2439 39.1806L61.5795 45.3025L58.8703 46.7786ZM56.0466 35.2726C56.4516 36.016 56.9112 36.61 57.4252 37.0547C57.9442 37.4966 58.4889 37.7659 59.0593 37.8628C59.632 37.9519 60.2052 37.8402 60.779 37.5275C61.3777 37.2013 61.7921 36.7685 62.0223 36.2289C62.2497 35.6844 62.3135 35.0771 62.2136 34.4068C62.1159 33.7288 61.8714 33.0306 61.4799 32.3122C61.0912 31.5987 60.6436 31.0208 60.1373 30.5785C59.631 30.1361 59.0901 29.8679 58.5147 29.7737C57.9393 29.6796 57.3498 29.797 56.7461 30.126C56.1673 30.4413 55.7588 30.8613 55.5205 31.3858C55.2822 31.9103 55.2078 32.5041 55.2973 33.1671C55.3918 33.8274 55.6415 34.5292 56.0466 35.2726Z" fill="white"/>
<path d="M70.7887 16.5295L76.8452 32.8996L73.9517 33.9702L67.8952 17.6001L70.7887 16.5295Z" fill="white"/>
<path d="M89.5143 29.6097C88.2639 29.876 87.1217 29.8317 86.0876 29.4768C85.0535 29.1219 84.1783 28.5037 83.4619 27.6222C82.7511 26.7395 82.2549 25.6368 81.9733 24.3142C81.6916 22.9916 81.6949 21.7797 81.9833 20.6784C82.2771 19.576 82.824 18.6521 83.6238 17.9066C84.4235 17.1612 85.4486 16.6554 86.699 16.3891C87.9494 16.1228 89.0916 16.1672 90.1257 16.5221C91.1598 16.877 92.0328 17.4985 92.7448 18.3868C93.4623 19.2738 93.9619 20.3786 94.2436 21.7013C94.5252 23.0239 94.5185 24.2336 94.2235 25.3305C93.934 26.4262 93.3893 27.3467 92.5895 28.0922C91.7898 28.8376 90.7647 29.3434 89.5143 29.6097ZM89.0162 27.1888C89.6942 27.0444 90.2214 26.7375 90.5978 26.2681C90.973 25.7932 91.2043 25.2153 91.2917 24.5345C91.3846 23.8524 91.3482 23.1224 91.1826 22.3444C91.0157 21.5608 90.7509 20.8765 90.3881 20.2915C90.0298 19.6998 89.5825 19.2635 89.0463 18.9826C88.5102 18.7018 87.9031 18.6336 87.2251 18.7779C86.5305 18.9259 85.9927 19.2379 85.612 19.714C85.2368 20.1889 85.0033 20.7702 84.9115 21.4578C84.8241 22.1386 84.8639 22.8709 85.0307 23.6544C85.1964 24.4324 85.4578 25.1145 85.815 25.7007C86.1778 26.2857 86.6273 26.7186 87.1634 26.9995C87.704 27.2736 88.3216 27.3367 89.0162 27.1888Z" fill="white"/>
<path d="M102.969 27.3458L102.298 14.2721L105.286 14.1187L105.398 16.2977L105.534 16.2907C105.733 15.5237 106.112 14.9212 106.67 14.4829C107.233 14.0387 107.889 13.7973 108.638 13.7589C108.808 13.7501 108.999 13.7489 109.21 13.7551C109.426 13.7554 109.606 13.7661 109.749 13.7872L109.895 16.6215C109.762 16.5828 109.553 16.5537 109.267 16.5343C108.987 16.5088 108.716 16.5028 108.455 16.5162C107.894 16.545 107.395 16.6929 106.959 16.9599C106.529 17.221 106.197 17.5709 105.963 18.0095C105.73 18.4482 105.627 18.9456 105.656 19.5017L106.05 27.1876L102.969 27.3458Z" fill="white"/>
<path d="M122.144 27.9056C120.839 27.7712 119.739 27.3838 118.845 26.7435C117.958 26.0981 117.311 25.249 116.906 24.1962C116.5 23.1378 116.368 21.9276 116.508 20.5654C116.646 19.2259 117.021 18.0765 117.634 17.1172C118.253 16.1528 119.053 15.4354 120.032 14.965C121.012 14.489 122.124 14.315 123.367 14.443C124.17 14.5256 124.914 14.7336 125.599 15.0669C126.291 15.3951 126.883 15.8559 127.376 16.4492C127.875 17.0432 128.239 17.7719 128.47 18.6353C128.702 19.4931 128.759 20.4928 128.641 21.6345L128.545 22.5755L117.871 21.4768L118.084 19.4082L125.816 20.2041C125.871 19.6157 125.797 19.0798 125.596 18.5964C125.395 18.1074 125.085 17.707 124.665 17.3954C124.252 17.0844 123.751 16.8986 123.163 16.8381C122.536 16.7735 121.969 16.8694 121.463 17.1258C120.958 17.3764 120.547 17.734 120.23 18.1983C119.92 18.6576 119.733 19.1781 119.667 19.7597L119.481 21.5654C119.403 22.3228 119.475 22.987 119.696 23.5581C119.917 24.1236 120.262 24.576 120.73 24.9155C121.198 25.2493 121.766 25.4505 122.433 25.5191C122.879 25.5651 123.29 25.5445 123.664 25.4574C124.039 25.3647 124.372 25.2076 124.664 24.9863C124.955 24.7649 125.187 24.4776 125.361 24.1241L128.193 24.7413C127.934 25.48 127.521 26.1058 126.955 26.6186C126.394 27.1264 125.705 27.4953 124.887 27.7253C124.07 27.9496 123.156 28.0097 122.144 27.9056Z" fill="white"/>
<path d="M165.954 22.5474L158.917 38.5205L156.344 37.3866L153.61 23.1907L153.478 23.1323L148.685 34.0124L145.791 32.7376L152.828 16.7645L155.417 17.9053L158.139 32.1056L158.28 32.1674L163.076 21.2795L165.954 22.5474Z" fill="white"/>
<path d="M170.981 46.4468C169.941 45.7038 169.202 44.8311 168.766 43.8285C168.33 42.8259 168.196 41.7629 168.363 40.6393C168.534 39.5191 169.013 38.4088 169.799 37.3083C170.585 36.2078 171.481 35.3923 172.488 34.8618C173.5 34.3346 174.551 34.1145 175.641 34.2015C176.731 34.2886 177.796 34.7036 178.836 35.4465C179.877 36.1894 180.615 37.0622 181.051 38.0648C181.487 39.0674 181.617 40.1311 181.443 41.2559C181.272 42.3841 180.794 43.4984 180.008 44.5989C179.223 45.6994 178.325 46.5109 177.317 47.0335C176.313 47.5594 175.266 47.7788 174.176 47.6917C173.086 47.6047 172.021 47.1897 170.981 46.4468ZM172.431 44.4453C172.995 44.8481 173.578 45.03 174.178 44.991C174.782 44.9473 175.364 44.7279 175.926 44.3329C176.492 43.9411 177.006 43.4216 177.468 42.7742C177.933 42.1223 178.26 41.465 178.447 40.8025C178.641 40.1387 178.661 39.5142 178.507 38.929C178.352 38.3438 177.993 37.8498 177.429 37.447C176.851 37.0343 176.257 36.8481 175.649 36.8884C175.045 36.9321 174.459 37.1521 173.89 37.5485C173.328 37.9436 172.815 38.4671 172.349 39.119C171.887 39.7664 171.56 40.4197 171.369 41.0789C171.182 41.7414 171.166 42.3652 171.32 42.9504C171.483 43.5342 171.853 44.0325 172.431 44.4453Z" fill="white"/>
<path d="M183.66 56.5329L190.824 44.9682L192.946 47.2888L187.707 55.1991L187.788 55.2872L196.167 50.8105L198.267 53.106L193.1 61.0195L193.187 61.1138L201.471 56.6089L203.599 58.9357L191.437 65.0354L189.269 62.6645L194.14 54.8826L194.019 54.7505L185.835 58.9101L183.66 56.5329Z" fill="white"/>
<path d="M141.033 62.8874C141.638 61.6464 141.122 60.1498 139.882 59.5445L119.659 49.6811C118.418 49.0759 116.921 49.5912 116.316 50.8322C115.71 52.0732 116.226 53.5699 117.467 54.1751L135.443 62.9425L126.675 80.9184C126.07 82.1594 126.585 83.6561 127.826 84.2613C129.067 84.8666 130.564 84.3512 131.169 83.1103L141.033 62.8874ZM83.8139 83.3638L139.6 64.1553L137.972 59.4277L82.1861 78.6362L83.8139 83.3638Z" fill="white"/>
</svg>
